<?xml version="1.0" encoding="utf-8"?>
<!-- Generator: Adobe Illustrator 16.0.0, SVG Export Plug-In . SVG Version: 6.00 Build 0)  -->
<!DOCTYPE svg PUBLIC "-//W3C//DTD SVG 1.1//EN" "http://www.w3.org/Graphics/SVG/1.1/DTD/svg11.dtd">
<svg version="1.1" id="Capa_1" xmlns="http://www.w3.org/2000/svg" xmlns:xlink="http://www.w3.org/1999/xlink" x="0px" y="0px"
	 width="800px" height="230px" viewBox="0 0 800 230" enable-background="new 0 0 800 230" xml:space="preserve">
<g id="GERSCO_1_">
	<path fill="#0C2B55" d="M269.398,100.609c0,12.662-4.58,23.894-13.792,33.718c-10.245,10.976-23.281,16.442-39.139,16.442
		c-14.775,0-27.381-4.795-37.768-14.36c-10.384-9.574-15.58-21.525-15.58-35.877c0-13.477,4.728-25.295,14.201-35.404
		C187.667,54.082,200.9,48.57,217.05,48.57c11.122,0,21.167,3.137,30.152,9.443c2.99,2.086,6.393,5.252,10.161,9.497l-13.07,8.352
		c-2.772-3.024-5.21-5.298-7.225-6.79c-6.286-4.529-13.101-6.79-20.456-6.79c-9.767,0-18.291,3.66-25.586,10.996
		c-7.308,7.288-10.958,16.199-10.958,26.67c0,10.585,3.785,19.455,11.324,26.645c7.241,6.896,15.731,10.346,25.52,10.346
		c9.167,0,16.937-2.909,23.271-8.74c6.316-5.814,10.313-13.469,11.959-22.938h-36.248v-11.58h53.504V100.609z"/>
	<polygon fill="#0C2B55" points="342.901,135.913 339.139,148.94 283.883,148.94 283.883,50.277 342.603,50.277 338.981,63.266 
		300.704,63.266 300.704,92.53 336.523,92.53 336.523,105.385 300.704,105.385 300.704,135.913 	"/>
	<path fill="#0C2B55" d="M424.973,148.959l-20.207,0.018l-31.408-44.608v44.572h-16.825l-0.006-98.664h30.734
		c9.579,0,17.143,2.23,22.684,6.692c5.578,4.49,8.355,10.452,8.355,17.911c0,8.109-2.082,14.59-6.243,19.498
		c-5.055,5.839-12.651,8.773-22.899,8.773L424.973,148.959z M402.802,77.346c0-4.363-1.617-7.898-4.887-10.584
		c-3.212-2.701-7.598-4.057-13.108-4.057h-11.448v31.674h11.597c5.42,0,9.748-1.557,12.96-4.62
		C401.185,86.681,402.802,82.525,402.802,77.346"/>
	<path fill="#0C2B55" d="M494.997,117.574c0,9.461-3.392,17.268-10.155,23.41c-6.763,6.146-15.226,9.201-25.354,9.201
		c-8.72,0-16.627-1.959-23.801-5.931c-2.316-1.296-5.087-3.317-8.258-6.069l7.86-12.273c2.599,2.426,4.812,4.26,6.671,5.507
		c5.654,3.766,11.283,5.648,16.775,5.648c6,0,10.679-1.732,13.998-5.166c3.336-3.47,5.027-7.484,5.027-12.13
		c0-5.913-4.086-10.395-12.217-13.418c-7.619-2.657-15.249-5.299-22.904-7.947c-8.215-4.251-12.312-10.839-12.312-19.826
		c0-8.02,2.966-14.913,8.864-20.678c6.363-6.229,14.646-9.332,24.77-9.332c5.885,0,11.89,1.109,17.989,3.344
		c2.031,0.739,4.497,1.876,7.387,3.344l-4.635,12.251c-2.704-1.489-4.878-2.578-6.54-3.241c-5.196-2.192-9.839-3.252-13.889-3.252
		c-5.438,0-9.782,1.74-13.058,5.24c-2.816,3.021-4.215,6.473-4.215,10.325c0,5.888,3.997,10.148,11.958,12.794
		c7.99,2.648,15.853,5.202,23.569,7.664C490.832,101.287,494.997,108.125,494.997,117.574"/>
	<path fill="#0C2B55" d="M589.83,59.182l-6.964,12.703c-2.6-1.859-4.832-3.286-6.703-4.227c-5.769-2.916-11.68-4.392-17.828-4.392
		c-9.936,0-18.462,3.61-25.549,10.829c-7.126,7.202-10.688,15.803-10.688,25.783c0,9.71,3.563,18.194,10.688,25.453
		c7.087,7.28,15.735,10.907,26.02,10.907c5.784,0,11.642-1.271,17.539-3.857c1.917-0.825,4.299-2.108,7.093-3.829l6.266,12.327
		c-3.221,2.271-5.958,3.897-8.31,4.965c-7.127,3.268-14.935,4.926-23.314,4.926c-15.086,0-27.744-5.185-37.978-15.549
		c-9.889-9.971-14.788-21.899-14.788-35.753c0-14.32,5.585-26.531,16.784-36.633c10.57-9.502,22.524-14.264,35.981-14.264
		c7.711,0,15.313,1.733,22.768,5.231C583.253,54.925,586.243,56.718,589.83,59.182"/>
	<path fill="#0C2B55" d="M704.96,99.525c0,14.088-4.84,26.007-14.515,35.81c-10.06,10.284-22.66,15.435-37.842,15.435
		c-14.698,0-27.237-4.799-37.699-14.43c-10.742-9.913-16.097-22.125-16.097-36.663c0-14.26,5.099-26.272,15.219-36.106
		c10.156-9.813,22.766-14.725,37.859-14.725c14.881,0,27.426,4.913,37.69,14.725C699.844,73.405,704.96,85.367,704.96,99.525
		 M688.278,99.819c0-10.29-3.618-19.034-10.864-26.221c-7.256-7.173-15.809-10.763-25.678-10.763
		c-9.676,0-18.141,3.668-25.446,10.993c-7.305,7.323-10.946,15.945-10.946,25.85c0,10.109,3.513,18.769,10.56,25.909
		c7.075,7.181,15.747,10.779,25.982,10.779c10.533,0,19.32-3.76,26.394-11.329C684.956,117.862,688.278,109.445,688.278,99.819"/>
	<polygon fill="#0C2B55" points="779.324,135.776 775.565,148.94 720.484,148.94 720.484,50.277 737.265,50.277 737.265,135.776 	
		"/>
	<path fill="#0C2B55" d="M184.488,179.854h-3.103c-0.058-0.717-0.252-1.338-0.589-1.93c-0.341-0.557-0.789-1.074-1.315-1.457
		c-0.551-0.413-1.195-0.693-1.934-0.91c-0.722-0.238-1.511-0.354-2.364-0.354c-1.178,0-2.219,0.207-3.142,0.615
		c-0.943,0.371-1.741,0.97-2.405,1.729c-0.645,0.75-1.159,1.731-1.525,2.834c-0.339,1.135-0.516,2.404-0.516,3.879
		c0,1.449,0.177,2.733,0.516,3.875c0.366,1.118,0.88,2.063,1.525,2.836c0.659,0.771,1.439,1.359,2.385,1.781
		c0.907,0.384,1.96,0.607,3.08,0.607c0.902,0,1.738-0.145,2.458-0.354c0.751-0.19,1.377-0.539,1.928-0.959
		c0.537-0.415,0.968-0.918,1.283-1.526c0.328-0.615,0.545-1.35,0.615-2.14h3.103c-0.1,1.161-0.403,2.244-0.912,3.162
		c-0.523,0.924-1.16,1.719-1.992,2.375c-0.814,0.65-1.774,1.141-2.862,1.47c-1.089,0.333-2.271,0.499-3.562,0.499
		c-1.635,0-3.115-0.256-4.458-0.812c-1.317-0.555-2.437-1.337-3.374-2.323c-0.938-1.035-1.629-2.256-2.143-3.688
		c-0.499-1.429-0.759-3.031-0.759-4.804c0-1.767,0.26-3.352,0.777-4.786c0.514-1.434,1.216-2.673,2.125-3.669
		c0.956-1.023,2.08-1.786,3.403-2.342c1.314-0.545,2.812-0.813,4.429-0.813c1.21,0,2.385,0.159,3.446,0.495
		c1.082,0.354,2.058,0.82,2.877,1.468c0.848,0.636,1.523,1.394,2.062,2.264C184.085,177.787,184.388,178.783,184.488,179.854"/>
	<polygon fill="#0C2B55" points="205.91,195.479 188.725,195.479 188.725,173.052 205.391,173.052 205.391,175.723 191.774,175.723 
		191.774,182.54 204.501,182.54 204.501,185.236 191.774,185.236 191.774,192.832 205.91,192.832 	"/>
	<polygon fill="#0C2B55" points="228.29,195.479 225.183,195.479 213.091,177.806 213.091,195.479 210.203,195.479 210.203,173.052 
		213.344,173.052 225.37,190.781 225.37,173.052 228.29,173.052 	"/>
	<polygon fill="#0C2B55" points="249.806,175.723 242.201,175.723 242.201,195.479 239.155,195.479 239.155,175.723 
		231.578,175.723 231.578,173.052 249.806,173.052 	"/>
	<path fill="#0C2B55" d="M272.297,195.479h-3.295l-2.189-6.012c-0.167-0.491-0.433-0.991-0.782-1.429
		c-0.316-0.434-0.684-0.822-1.118-1.112c-0.433-0.344-0.906-0.579-1.451-0.746c-0.522-0.162-1.101-0.272-1.66-0.272h-5.667v9.571
		h-3.069v-22.428h10.214c0.625,0,1.207,0.006,1.768,0.032c0.572,0.05,1.083,0.101,1.607,0.228c0.499,0.088,0.96,0.214,1.44,0.401
		c0.432,0.188,0.868,0.471,1.277,0.8c0.699,0.605,1.214,1.334,1.594,2.176c0.36,0.846,0.538,1.714,0.538,2.662
		c0,0.776-0.133,1.496-0.368,2.154c-0.247,0.629-0.573,1.226-1.023,1.746c-0.443,0.525-0.994,0.922-1.618,1.302
		c-0.651,0.326-1.372,0.561-2.183,0.746v0.036c1.609,0.467,2.833,1.846,3.712,4.072L272.297,195.479z M256.136,183.235h6.841
		c0.935,0,1.732-0.092,2.414-0.212c0.703-0.157,1.266-0.37,1.683-0.659c0.442-0.307,0.773-0.705,0.961-1.223
		c0.217-0.507,0.311-1.083,0.311-1.791c0-1.308-0.414-2.24-1.219-2.884c-0.823-0.62-2.044-0.91-3.711-0.91h-7.279V183.235z"/>
	<path fill="#0C2B55" d="M286.301,172.676c1.573,0,3.055,0.253,4.407,0.821c1.344,0.578,2.516,1.359,3.486,2.35
		c0.984,1.003,1.744,2.243,2.285,3.677c0.555,1.424,0.817,3.005,0.817,4.735c0,1.748-0.262,3.308-0.805,4.726
		c-0.542,1.427-1.288,2.646-2.266,3.686c-0.982,1.009-2.144,1.79-3.479,2.376c-1.351,0.567-2.837,0.84-4.444,0.84
		c-1.62,0-3.123-0.256-4.444-0.834c-1.354-0.569-2.517-1.355-3.511-2.358c-0.955-1.051-1.726-2.248-2.271-3.667
		c-0.529-1.442-0.792-3.014-0.792-4.768c0-1.742,0.282-3.338,0.806-4.759c0.552-1.422,1.33-2.656,2.308-3.671
		c0.97-1.001,2.142-1.771,3.492-2.344C283.227,172.929,284.7,172.676,286.301,172.676 M286.301,193.358
		c1.133,0,2.195-0.243,3.14-0.649c0.977-0.409,1.817-1.005,2.499-1.778c0.704-0.773,1.247-1.731,1.633-2.842
		c0.392-1.133,0.593-2.401,0.593-3.83c0-1.422-0.221-2.69-0.612-3.842c-0.374-1.081-0.923-2.067-1.614-2.821
		c-0.699-0.766-1.528-1.377-2.499-1.767c-0.931-0.408-1.971-0.589-3.089-0.589c-1.155,0-2.219,0.181-3.179,0.606
		c-0.956,0.427-1.81,0.991-2.505,1.777c-0.693,0.769-1.264,1.727-1.649,2.845c-0.39,1.112-0.588,2.376-0.588,3.79
		c0,1.429,0.198,2.697,0.588,3.83c0.385,1.11,0.919,2.068,1.617,2.842c0.703,0.773,1.524,1.369,2.501,1.778
		C284.095,193.115,285.133,193.358,286.301,193.358"/>
	<path fill="#0C2B55" d="M331.592,184.173c0,7.531-3.925,11.307-11.766,11.307h-7.305v-22.428h7.305
		C327.667,173.052,331.592,176.751,331.592,184.173 M328.442,184.173c0-1.328-0.13-2.493-0.394-3.556
		c-0.292-1.031-0.76-1.924-1.416-2.634c-0.644-0.736-1.529-1.295-2.635-1.648c-1.125-0.413-2.506-0.612-4.178-0.612h-4.218v17.109
		h4.218c1.666,0,3.044-0.185,4.172-0.591c1.082-0.373,1.971-0.959,2.635-1.698c0.663-0.74,1.13-1.641,1.422-2.742
		C328.313,186.753,328.442,185.511,328.442,184.173"/>
	<polygon fill="#0C2B55" points="352.943,195.479 335.776,195.479 335.776,173.052 352.427,173.052 352.427,175.723 
		338.795,175.723 338.795,182.54 351.538,182.54 351.538,185.236 338.795,185.236 338.795,192.832 352.943,192.832 	"/>
	<path fill="#0C2B55" d="M387.404,179.854h-3.121c-0.04-0.717-0.235-1.338-0.584-1.93c-0.314-0.557-0.775-1.074-1.3-1.457
		c-0.539-0.413-1.197-0.693-1.936-0.91c-0.726-0.238-1.511-0.354-2.381-0.354c-1.138,0-2.208,0.207-3.157,0.615
		c-0.91,0.371-1.7,0.97-2.36,1.729c-0.657,0.75-1.166,1.731-1.526,2.834c-0.344,1.135-0.53,2.404-0.53,3.879
		c0,1.449,0.187,2.733,0.53,3.875c0.36,1.118,0.869,2.063,1.526,2.836c0.646,0.771,1.439,1.359,2.36,1.781
		c0.927,0.384,1.974,0.607,3.103,0.607c0.883,0,1.709-0.145,2.442-0.354c0.738-0.19,1.39-0.539,1.929-0.959
		c0.525-0.415,0.98-0.918,1.3-1.526c0.326-0.615,0.531-1.35,0.584-2.14h3.121c-0.088,1.161-0.41,2.244-0.91,3.162
		c-0.517,0.924-1.167,1.719-1.991,2.375c-0.81,0.65-1.774,1.141-2.874,1.47c-1.07,0.333-2.272,0.499-3.554,0.499
		c-1.651,0-3.13-0.256-4.451-0.812c-1.325-0.555-2.449-1.337-3.379-2.323c-0.943-1.035-1.632-2.256-2.149-3.688
		c-0.491-1.429-0.752-3.031-0.752-4.804c0-1.767,0.261-3.352,0.77-4.786c0.507-1.434,1.208-2.673,2.145-3.669
		c0.922-1.023,2.048-1.786,3.382-2.342c1.342-0.545,2.814-0.813,4.434-0.813c1.214,0,2.362,0.159,3.452,0.495
		c1.094,0.354,2.048,0.82,2.883,1.468c0.839,0.636,1.514,1.394,2.04,2.264C386.984,177.787,387.316,178.783,387.404,179.854"/>
	<path fill="#0C2B55" d="M410.558,195.479h-3.411l-2.69-6.819h-9.635l-2.56,6.819h-3.217l8.819-22.428h3.337L410.558,195.479z
		 M403.575,186.293l-4.061-10.383l-3.889,10.383H403.575z"/>
	<path fill="#0C2B55" d="M413.108,173.052h8.622c1.176,0,2.281,0.092,3.344,0.295c1.059,0.208,1.977,0.531,2.839,1.027
		c0.805,0.506,1.469,1.183,1.926,2.022c0.507,0.845,0.727,1.888,0.727,3.207c0,2.268-0.727,3.987-2.189,5.169
		c-1.476,1.183-3.62,1.748-6.434,1.748h-5.771v8.959h-3.063V173.052z M416.171,183.854h5.862c0.957,0,1.773-0.066,2.484-0.291
		c0.689-0.162,1.243-0.432,1.673-0.795c0.46-0.331,0.741-0.784,0.973-1.287c0.169-0.521,0.267-1.133,0.267-1.811
		c0-0.829-0.13-1.508-0.446-2.037c-0.288-0.49-0.702-0.909-1.181-1.179c-0.523-0.3-1.112-0.49-1.791-0.578
		c-0.647-0.09-1.335-0.154-2.069-0.154h-5.771V183.854z"/>
	<path fill="#0C2B55" d="M453.512,195.479h-3.46l-2.643-6.819h-9.642l-2.581,6.819h-3.191l8.817-22.428h3.311L453.512,195.479z
		 M446.51,186.293l-4.059-10.383l-3.863,10.383H446.51z"/>
	<path fill="#0C2B55" d="M475.063,179.854h-3.121c-0.038-0.717-0.243-1.338-0.58-1.93c-0.333-0.557-0.788-1.074-1.337-1.457
		c-0.519-0.413-1.172-0.693-1.887-0.91c-0.752-0.238-1.539-0.354-2.369-0.354c-1.171,0-2.205,0.207-3.169,0.615
		c-0.939,0.371-1.727,0.97-2.382,1.729c-0.683,0.75-1.161,1.731-1.519,2.834c-0.361,1.135-0.547,2.404-0.547,3.879
		c0,1.449,0.186,2.733,0.547,3.875c0.357,1.118,0.836,2.063,1.486,2.836c0.656,0.771,1.457,1.359,2.374,1.781
		c0.958,0.384,1.979,0.607,3.099,0.607c0.921,0,1.728-0.145,2.479-0.354c0.734-0.19,1.374-0.539,1.896-0.959
		c0.556-0.415,0.995-0.918,1.306-1.526c0.348-0.615,0.537-1.35,0.603-2.14h3.121c-0.108,1.161-0.38,2.244-0.9,3.162
		c-0.528,0.924-1.194,1.719-1.996,2.375c-0.838,0.65-1.787,1.141-2.864,1.47c-1.102,0.333-2.309,0.499-3.569,0.499
		c-1.654,0-3.123-0.256-4.441-0.812c-1.322-0.555-2.46-1.337-3.371-2.323c-0.935-1.035-1.675-2.256-2.171-3.688
		c-0.504-1.429-0.762-3.031-0.762-4.804c0-1.767,0.258-3.352,0.762-4.786c0.518-1.434,1.247-2.673,2.171-3.669
		c0.917-1.023,2.064-1.786,3.396-2.342c1.313-0.545,2.763-0.813,4.417-0.813c1.219,0,2.38,0.159,3.444,0.495
		c1.094,0.354,2.056,0.82,2.877,1.468c0.839,0.636,1.527,1.394,2.076,2.264C474.651,177.787,474.954,178.783,475.063,179.854"/>
	<rect x="479.697" y="173.052" fill="#0C2B55" width="3.019" height="22.428"/>
	<polygon fill="#0C2B55" points="504.629,175.723 497.01,175.723 497.01,195.479 493.954,195.479 493.954,175.723 486.385,175.723 
		486.385,173.052 504.629,173.052 	"/>
	<path fill="#0C2B55" d="M526.823,195.479h-3.444l-2.665-6.819h-9.632l-2.565,6.819h-3.194l8.819-22.428h3.296L526.823,195.479z
		 M519.813,186.293l-4.051-10.383l-3.872,10.383H519.813z"/>
	<path fill="#0C2B55" d="M548.384,179.854h-3.127c-0.036-0.717-0.271-1.338-0.562-1.93c-0.367-0.557-0.789-1.074-1.362-1.457
		c-0.533-0.413-1.159-0.693-1.882-0.91c-0.733-0.238-1.561-0.354-2.401-0.354c-1.148,0-2.205,0.207-3.139,0.615
		c-0.92,0.371-1.746,0.97-2.38,1.729c-0.681,0.75-1.187,1.731-1.511,2.834c-0.387,1.135-0.555,2.404-0.555,3.879
		c0,1.449,0.168,2.733,0.555,3.875c0.324,1.118,0.83,2.063,1.511,2.836c0.634,0.771,1.416,1.359,2.342,1.781
		c0.921,0.384,1.982,0.607,3.1,0.607c0.9,0,1.745-0.145,2.479-0.354c0.752-0.19,1.349-0.539,1.908-0.959
		c0.547-0.415,0.959-0.918,1.292-1.526c0.321-0.615,0.535-1.35,0.605-2.14h3.127c-0.118,1.161-0.431,2.244-0.921,3.162
		c-0.514,0.924-1.175,1.719-1.998,2.375c-0.813,0.65-1.777,1.141-2.876,1.47c-1.07,0.333-2.281,0.499-3.577,0.499
		c-1.624,0-3.101-0.256-4.425-0.812c-1.317-0.555-2.447-1.337-3.364-2.323c-0.936-1.035-1.669-2.256-2.148-3.688
		c-0.516-1.429-0.765-3.031-0.765-4.804c0-1.767,0.249-3.352,0.765-4.786c0.508-1.434,1.233-2.673,2.154-3.669
		c0.923-1.023,2.071-1.786,3.368-2.342c1.341-0.545,2.805-0.813,4.415-0.813c1.245,0,2.389,0.159,3.487,0.495
		c1.053,0.354,2.044,0.82,2.888,1.468c0.822,0.636,1.51,1.394,2.065,2.264C547.939,177.787,548.266,178.783,548.384,179.854"/>
	<rect x="552.996" y="173.052" fill="#0C2B55" width="3.045" height="22.428"/>
	<path fill="#0C2B55" d="M571.501,172.676c1.604,0,3.072,0.253,4.44,0.821c1.351,0.578,2.494,1.359,3.471,2.35
		c0.974,1.003,1.731,2.243,2.301,3.677c0.541,1.424,0.817,3.005,0.817,4.735c0,1.748-0.276,3.308-0.801,4.726
		c-0.565,1.427-1.32,2.646-2.265,3.686c-0.992,1.009-2.143,1.79-3.483,2.376c-1.372,0.567-2.851,0.84-4.48,0.84
		c-1.607,0-3.082-0.256-4.43-0.834c-1.363-0.569-2.518-1.355-3.506-2.358c-0.966-1.051-1.718-2.248-2.259-3.667
		c-0.519-1.442-0.814-3.014-0.814-4.768c0-1.742,0.296-3.338,0.835-4.759c0.538-1.422,1.309-2.656,2.265-3.671
		c0.998-1.001,2.152-1.771,3.51-2.344C568.445,172.929,569.934,172.676,571.501,172.676 M571.489,193.358
		c1.17,0,2.203-0.243,3.176-0.649c0.973-0.409,1.806-1.005,2.514-1.778c0.685-0.773,1.212-1.731,1.621-2.842
		c0.362-1.133,0.584-2.401,0.584-3.83c0-1.422-0.222-2.69-0.584-3.842c-0.43-1.081-0.937-2.067-1.638-2.821
		c-0.705-0.766-1.53-1.377-2.497-1.767c-0.949-0.408-1.956-0.589-3.103-0.589c-1.138,0-2.217,0.181-3.155,0.606
		c-0.972,0.427-1.825,0.991-2.511,1.777c-0.715,0.769-1.26,1.727-1.669,2.845c-0.378,1.112-0.599,2.376-0.599,3.79
		c0,1.429,0.221,2.697,0.599,3.83c0.399,1.11,0.941,2.068,1.651,2.842c0.677,0.773,1.512,1.369,2.475,1.778
		C569.295,193.115,570.373,193.358,571.489,193.358"/>
	<polygon fill="#0C2B55" points="604.687,195.479 601.585,195.479 589.488,177.806 589.488,195.479 586.587,195.479 
		586.587,173.052 589.743,173.052 601.788,190.781 601.788,173.052 604.687,173.052 	"/>
	<polygon fill="#0C2B55" points="638.184,195.479 620.992,195.479 620.992,173.052 637.664,173.052 637.664,175.723 
		624.056,175.723 624.056,182.54 636.756,182.54 636.756,185.236 624.056,185.236 624.056,192.832 638.184,192.832 	"/>
	<polygon fill="#0C2B55" points="660.562,195.479 657.46,195.479 645.376,177.806 645.376,195.479 642.473,195.479 642.473,173.052 
		645.624,173.052 657.652,190.781 657.652,173.052 660.562,173.052 	"/>
	<path fill="#0C2B55" d="M685.577,195.886c-1.65,0-3.038-0.183-4.286-0.563c-1.222-0.366-2.202-0.91-3.029-1.571
		c-0.795-0.677-1.422-1.464-1.853-2.39c-0.38-0.917-0.617-1.955-0.651-3.094h2.915c0.096,0.869,0.327,1.602,0.703,2.215
		c0.383,0.645,0.881,1.147,1.479,1.551c0.596,0.387,1.278,0.717,2.063,0.91c0.779,0.154,1.601,0.27,2.504,0.27
		c0.854,0,1.63-0.099,2.35-0.262c0.702-0.166,1.314-0.438,1.772-0.766c0.524-0.318,0.889-0.734,1.19-1.217
		c0.241-0.45,0.396-1.007,0.396-1.563c0-0.646-0.146-1.148-0.356-1.569c-0.271-0.414-0.668-0.813-1.251-1.133
		c-0.553-0.308-1.305-0.59-2.2-0.868c-0.905-0.226-2.058-0.502-3.361-0.785c-1.295-0.264-2.418-0.588-3.356-0.986
		c-0.926-0.342-1.7-0.791-2.315-1.285c-0.603-0.474-1.036-1.046-1.329-1.686c-0.281-0.626-0.415-1.372-0.415-2.206
		c0-0.885,0.188-1.727,0.557-2.492c0.413-0.75,0.983-1.414,1.706-1.978c0.732-0.569,1.577-0.97,2.592-1.285
		c0.98-0.312,2.11-0.458,3.347-0.458c1.247,0,2.451,0.146,3.512,0.444c1.073,0.329,1.994,0.729,2.759,1.353
		c0.765,0.561,1.378,1.301,1.817,2.114c0.426,0.827,0.656,1.763,0.729,2.841h-2.967c-0.325-2.717-2.24-4.091-5.723-4.091
		c-1.711,0-3.027,0.339-3.961,0.96c-0.938,0.578-1.373,1.461-1.373,2.504c0,0.477,0.087,0.854,0.241,1.212
		c0.17,0.323,0.475,0.616,0.863,0.889c0.434,0.24,0.967,0.462,1.631,0.68c0.679,0.215,1.532,0.403,2.549,0.646
		c0.674,0.122,1.4,0.265,2.127,0.408c0.732,0.154,1.405,0.382,2.134,0.604c0.67,0.226,1.314,0.529,1.932,0.82
		c0.622,0.375,1.157,0.734,1.614,1.201c0.447,0.463,0.807,1.007,1.097,1.666c0.234,0.64,0.378,1.368,0.378,2.231
		c0,0.969-0.194,1.863-0.658,2.72c-0.383,0.815-0.979,1.524-1.752,2.104c-0.762,0.602-1.654,1.076-2.726,1.405
		C687.944,195.72,686.786,195.886,685.577,195.886"/>
	<path fill="#0C2B55" d="M717.307,195.479h-3.484l-2.68-6.819h-9.645l-2.531,6.819h-3.221l8.816-22.428h3.328L717.307,195.479z
		 M710.267,186.293l-4.038-10.383l-3.892,10.383H710.267z"/>
	<polygon fill="#0C2B55" points="734.092,195.479 719.79,195.479 719.79,173.052 722.852,173.052 722.852,192.832 734.092,192.832 	
		"/>
	<path fill="#0C2B55" d="M746.745,195.886c-1.425,0-2.607-0.134-3.621-0.438c-0.995-0.266-1.829-0.629-2.491-1.106
		c-0.688-0.492-1.227-1.069-1.604-1.672c-0.397-0.657-0.651-1.356-0.851-2.074c-0.231-0.746-0.336-1.502-0.41-2.268
		c-0.056-0.779-0.056-1.523-0.056-2.297v-12.979h3.057v12.955c0,1.473,0.11,2.704,0.398,3.652c0.262,0.94,0.658,1.668,1.131,2.209
		c0.529,0.509,1.157,0.883,1.891,1.076c0.738,0.154,1.614,0.27,2.556,0.27c0.985,0,1.852-0.115,2.606-0.27
		c0.745-0.193,1.332-0.567,1.845-1.082c0.532-0.549,0.881-1.267,1.159-2.216c0.274-0.962,0.367-2.167,0.367-3.64v-12.955h3.086
		v12.979c0,1.553-0.125,2.953-0.397,4.157c-0.304,1.208-0.76,2.232-1.449,3.072c-0.675,0.875-1.585,1.507-2.766,1.946
		C750.032,195.68,748.561,195.886,746.745,195.886"/>
	<path fill="#0C2B55" d="M780,184.173c0,7.531-3.918,11.307-11.738,11.307h-7.329v-22.428h7.329
		C776.082,173.052,780,176.751,780,184.173 M776.864,184.173c0-1.328-0.146-2.493-0.43-3.556c-0.258-1.031-0.727-1.924-1.399-2.634
		c-0.633-0.736-1.529-1.295-2.617-1.648c-1.137-0.413-2.528-0.612-4.206-0.612h-4.235v17.109h4.235c1.666,0,3.058-0.185,4.175-0.591
		c1.107-0.373,1.985-0.959,2.648-1.698c0.673-0.74,1.142-1.641,1.399-2.742C776.719,186.753,776.864,185.511,776.864,184.173"/>
	<path fill-rule="evenodd" clip-rule="evenodd" fill="#0C2B55" d="M158.693,66.669c-1.32-6.191-4.109-11.699-8.283-16.617
		c-5.456-6.404-12.349-10.691-20.567-12.906c-4.847-1.302-9.85-1.653-14.88-1.13c-1.197,0.119-2.374,0.288-3.514,0.523
		c-6.292,1.177-11.987,3.765-17.157,7.574c-1.089,0.791-2.086,1.721-3.168,2.63c-1.349-1.237-2.585-2.503-3.941-3.664
		c-5.569-4.728-11.99-7.731-19.279-9.031c-1.831-0.316-3.633-0.535-5.404-0.639c-6.726-0.346-13.181,0.95-19.435,3.777
		c-5.134,2.361-9.535,5.691-13.214,9.874c-4.223,4.788-7.1,10.226-8.592,16.362c-0.387,1.559-0.651,3.169-0.993,4.747
		C20.183,70.1,20.1,72.022,20,73.961c0.296,1.825,0.531,3.642,0.853,5.427c1.106,6.125,3.404,11.856,7.6,16.572
		c0.222,0.25,0.485,0.515,0.747,0.783c3.534,3.918,7.456,7.585,11.28,11.276c5.246,0.018,10.469,0,15.688,0.018
		c4.628,0,6.301,1.604,6.301,5.976c0.018,4.13,0.018,8.254,0.018,12.362c7-20.119,5.01-38.159-13.517-52.538
		c2.096,0,3.759-0.245,5.317,0.053c4.715,0.873,9.403,1.896,14.08,2.954c3.937,0.891,7.919,1.448,11.921,0.742
		c6.54-1.188,11.189-5.188,15.349-9.802c0.768-0.874,1.507-1.739,2.675-3.056c0,1.347,0.006,2.034,0,2.699
		c-0.071,0.964-0.101,1.953-0.261,2.917c-1.832,11.782-5.882,22.875-11.322,33.53c-5.429,10.611-12.141,20.275-20.971,28.432
		c2.046,1.939,4.059,3.882,6.107,5.797c0.8,0.788,1.617,1.569,2.426,2.351c4.085,3.947,8.175,7.87,12.345,11.867
		c1.388-1.116,2.779-2.222,4.171-3.336c3.485-2.843,6.968-5.656,10.458-8.531c0.723-0.545,1.474-1.159,2.203-1.77
		c0.681-0.566,1.37-1.112,2.019-1.633c1.999-1.661,3.959-3.267,5.951-4.859c0.011-0.019,0.058-0.024,0.058-0.056
		c3.969-3.23,7.954-6.507,11.938-9.74c-0.57-9.165-1.031-18.317-1.45-27.486c-0.386-7.745-0.675-15.513-0.991-23.271
		c-0.122-0.016-0.253-0.021-0.368-0.021c-0.152,1.617-0.347,3.264-0.447,4.859c-0.52,8.08-0.956,16.164-1.563,24.193
		c-0.229,3.172-0.764,6.301-1.221,9.458c-0.093,0.658-0.366,1.305-0.688,1.926c-0.925,1.704-2.965,1.935-4.155,0.389
		c-0.72-0.942-1.201-2.115-1.566-3.255c-0.706-2.101-1.243-4.301-2.159-6.5c-0.161,0.414-0.333,0.813-0.461,1.241
		c-0.518,1.716-0.985,3.452-1.559,5.179c-0.432,1.167-1.362,1.715-2.721,1.696c-4.661-0.048-9.304-0.018-13.964-0.032
		c-1.253,0-2.044-0.618-2.058-1.6c-0.025-0.945,0.734-1.56,2.074-1.569c4.155,0,8.301-0.027,12.474,0.009
		c1.038,0.002,1.538-0.299,1.745-1.309c0.385-1.707,0.88-3.349,1.416-5.003c0.234-0.674,0.625-1.341,1.057-1.894
		c1.171-1.426,3.433-1.36,4.356,0.221c0.747,1.3,1.231,2.771,1.701,4.215c0.495,1.467,0.854,2.989,1.253,4.472
		c0.12,0,0.239-0.008,0.341-0.024c0.232-2.222,0.553-4.433,0.694-6.658c0.551-8.05,0.972-16.152,1.576-24.192
		c0.257-3.642,0.751-7.271,1.275-10.901c0.185-1.108,0.64-2.257,1.272-3.208c0.915-1.476,2.978-1.368,3.495,0.258
		c0.675,2.13,1.176,4.358,1.276,6.584c0.541,10.044,0.892,20.086,1.347,30.125c0.292,6.525,0.627,13.006,1,19.486v0.164
		c0.39-0.307,0.746-0.627,1.126-0.949c0.126-3.25,0.228-6.529,0.42-9.796c0.085-1.598,0.425-3.164,0.769-4.732
		c0.277-1.183,0.897-2.209,2.338-2.342c1.349-0.123,2.195,0.478,2.934,1.978c0.09,0.22,0.191,0.418,0.582,0.616
		c0.189-1.332,0.385-2.693,0.55-4.051c0.52-4.023,0.995-8.038,1.504-12.063c0.123-0.763,0.342-1.495,0.627-2.201
		c0.372-0.962,1.035-1.657,2.208-1.707c1.13-0.003,1.99,0.58,2.305,1.525c0.641,1.819,1.215,3.685,1.506,5.553
		c0.663,4.322,1.15,8.665,1.719,12.994c0.587-0.483,1.195-0.96,1.785-1.468c2.939-2.4,5.203-5.383,7.168-8.563
		c2.736-4.401,4.386-9.144,5.259-14.229c0.05-0.266,0.191-0.516,0.268-0.782c0.073-1.952,0.162-3.891,0.265-5.821
		C159.413,71.487,159.21,69.052,158.693,66.669 M74.89,73.318c-5.246,0.02-9.608-4.328-9.603-9.54
		c0.012-5.007,4.482-9.314,9.608-9.263c5.106,0.07,9.545,4.439,9.545,9.429C84.441,68.972,80.001,73.318,74.89,73.318
		 M139.919,91.056c-0.127,0-0.265-0.011-0.393-0.011c-0.237,1.906-0.439,3.802-0.699,5.698c-0.467,3.673-0.974,7.397-1.486,11.086
		c-0.04,0.364-0.146,0.7-0.303,1.029c-0.399,1.051-1.037,1.897-2.315,1.897c-1.192-0.003-2.072-0.642-2.553-1.761
		c-0.167-0.358-0.368-0.723-0.711-1.38c-0.125,1.063-0.282,1.823-0.316,2.603c-0.087,1.982-0.137,4.033-0.2,6.036
		c1.019-0.836,2.035-1.693,3.079-2.51c2.368-1.954,4.723-3.871,7.094-5.803c0.334-0.274,0.663-0.576,1.024-0.839
		c-0.292-1.246-0.512-2.498-0.714-3.745C140.836,99.275,140.4,95.175,139.919,91.056"/>
	<path fill-rule="evenodd" clip-rule="evenodd" fill="#8CA13A" d="M214.558,158.669c0,0-143.408-20.127-183.74,30.156
		C30.818,188.825,30.038,123.344,214.558,158.669"/>
	<path fill-rule="evenodd" clip-rule="evenodd" fill="#8CA13A" d="M206.176,163.192c0,0-110.994-7.321-138.891,33.452
		C67.286,196.645,62.797,146.59,206.176,163.192"/>
	<path fill-rule="evenodd" clip-rule="evenodd" fill="#0C2B55" d="M127.541,118.996c1.139-0.924,2.267-1.829,3.402-2.744
		c-0.094,2.744-0.197,5.521-0.372,8.292c-0.113,1.895-0.609,3.79-1.084,5.642c-0.284,1.135-1.188,1.834-2.479,1.794
		c-1.327-0.021-2.007-0.921-2.256-1.95c-0.543-2.137-1.119-4.313-1.248-6.456c-0.021-0.396-0.048-0.811-0.071-1.178
		c1.003-0.823,1.982-1.632,2.982-2.45c0.083,1.64,0.349,3.231,0.735,4.912c0.095-0.595,0.219-1.124,0.239-1.681
		C127.485,121.772,127.511,120.394,127.541,118.996"/>
	<path fill-rule="evenodd" clip-rule="evenodd" fill="#0C2B55" d="M171.051,110.803c-6.484-0.032-12.975-0.038-19.465,0.02
		c-1.271,0-1.588-0.803-2.174-1.651c-0.38,0.892-0.69,1.677-1.036,2.417c-0.546,1.122-1.411,1.795-2.688,1.832
		c-1.316,0-2.207-0.71-2.492-1.853c-0.366-1.472-0.733-2.959-1.056-4.478c0.79-0.627,1.573-1.287,2.391-1.905
		c0.156-0.147,0.296-0.274,0.472-0.414c0.085,0.818,0.202,1.628,0.317,2.435c0.056,0.493,0.202,0.993,0.567,1.521
		c0.31-0.846,0.623-1.672,0.925-2.551c0.379-1.107,1.125-1.852,2.403-1.909c1.332-0.05,2.286,0.646,2.641,1.8
		c0.426,1.374,1.289,1.565,2.585,1.546c5.381-0.011,10.744-0.011,16.119-0.011C170.703,108.671,170.871,109.731,171.051,110.803"/>
	<polygon fill-rule="evenodd" clip-rule="evenodd" fill="#8CA13A" points="224.277,160.079 774.988,156.82 768.788,161.987 	"/>
	<polygon fill-rule="evenodd" clip-rule="evenodd" fill="#FFFFFF" points="570.919,163 575.437,161.775 577.437,161.529 
		572.309,163 	"/>
</g>
</svg>
